<?xml version="1.0" encoding="UTF-8" standalone="no"?>
<!-- Generator: Adobe Illustrator 18.1.0, SVG Export Plug-In . SVG Version: 6.00 Build 0)  -->

<svg
   xmlns:dc="http://purl.org/dc/elements/1.1/"
   xmlns:cc="http://creativecommons.org/ns#"
   xmlns:rdf="http://www.w3.org/1999/02/22-rdf-syntax-ns#"
   xmlns:svg="http://www.w3.org/2000/svg"
   xmlns="http://www.w3.org/2000/svg"
   xmlns:sodipodi="http://sodipodi.sourceforge.net/DTD/sodipodi-0.dtd"
   xmlns:inkscape="http://www.inkscape.org/namespaces/inkscape"
   version="1.1"
   id="Layer_1"
   x="0px"
   y="0px"
   viewBox="0 0 48 48"
   enable-background="new 0 0 138 35"
   xml:space="preserve"
   inkscape:version="0.91 r"
   sodipodi:docname="bitbucket_white.svg"
   width="48"
   height="48"><metadata
     id="metadata77"><rdf:RDF><cc:Work
         rdf:about=""><dc:format>image/svg+xml</dc:format><dc:type
           rdf:resource="http://purl.org/dc/dcmitype/StillImage" /><dc:title></dc:title></cc:Work></rdf:RDF></metadata><defs
     id="defs75" /><sodipodi:namedview
     pagecolor="#ffffff"
     bordercolor="#666666"
     borderopacity="1"
     objecttolerance="10"
     gridtolerance="10"
     guidetolerance="10"
     inkscape:pageopacity="0"
     inkscape:pageshadow="2"
     inkscape:window-width="1362"
     inkscape:window-height="711"
     id="namedview73"
     showgrid="false"
     inkscape:zoom="2.4855072"
     inkscape:cx="-61.355686"
     inkscape:cy="17.5"
     inkscape:window-x="0"
     inkscape:window-y="36"
     inkscape:window-maximized="0"
     inkscape:current-layer="Layer_1" /><g
     id="g4205"
     style="fill:#ffffff;fill-opacity:1"
     transform="matrix(1.2765957,0,0,1.2765957,10.978724,-5.68085)"><path
       id="path67"
       d="m 10.2,11.5 0,0 0,0 C 4.6,11.5 0,13 0,14.9 c 0,0.5 1.2,7.6 1.7,10.4 0.2,1.3 3.5,3.1 8.5,3.1 l 0,0 0,0 c 5,0 8.2,-1.8 8.5,-3.1 0.5,-2.8 1.7,-9.9 1.7,-10.4 C 20.3,13 15.8,11.5 10.2,11.5 Z m 0,14.6 C 8.4,26.1 7,24.7 7,22.9 c 0,-1.8 1.4,-3.2 3.2,-3.2 1.8,0 3.2,1.4 3.2,3.2 0,1.7 -1.4,3.2 -3.2,3.2 z m 0,-10.2 c -3.6,0 -6.5,-0.6 -6.5,-1.4 0,-0.8 2.9,-1.4 6.5,-1.4 3.6,0 6.5,0.6 6.5,1.4 0,0.8 -2.9,1.4 -6.5,1.4 z"
       style="fill:#ffffff;fill-opacity:1"
       inkscape:connector-curvature="0" /><path
       id="path69"
       d="m 17.5,28 c -0.2,0 -0.3,0.1 -0.3,0.1 0,0 -2.5,2 -7,2 -4.5,0 -7,-2 -7,-2 0,0 -0.2,-0.1 -0.3,-0.1 -0.2,0 -0.4,0.1 -0.4,0.4 0,0 0,0.1 0,0.1 0.4,2.1 0.7,3.6 0.7,3.8 0.3,1.5 3.3,2.7 6.9,2.7 l 0,0 0,0 0,0 0,0 c 3.6,0 6.6,-1.2 6.9,-2.7 0,-0.2 0.3,-1.7 0.7,-3.8 0,0 0,-0.1 0,-0.1 0.1,-0.2 0,-0.4 -0.2,-0.4 z"
       style="fill:#ffffff;fill-opacity:1"
       inkscape:connector-curvature="0" /><circle
       id="circle71"
       r="1.6"
       cy="22.799999"
       cx="10.2"
       style="fill:#ffffff;fill-opacity:1" /></g></svg>