<?xml version="1.0" encoding="UTF-8" standalone="no"?>
<svg
   xmlns:dc="http://purl.org/dc/elements/1.1/"
   xmlns:cc="http://creativecommons.org/ns#"
   xmlns:rdf="http://www.w3.org/1999/02/22-rdf-syntax-ns#"
   xmlns:svg="http://www.w3.org/2000/svg"
   xmlns="http://www.w3.org/2000/svg"
   xmlns:sodipodi="http://sodipodi.sourceforge.net/DTD/sodipodi-0.dtd"
   xmlns:inkscape="http://www.inkscape.org/namespaces/inkscape"
   width="32"
   height="32"
   viewBox="0 0 32 32"
   id="svg4415"
   version="1.1"
   inkscape:version="0.91 r"
   sodipodi:docname="ic_commit.svg">
  <metadata
     id="metadata4423">
    <rdf:RDF>
      <cc:Work
         rdf:about="">
        <dc:format>image/svg+xml</dc:format>
        <dc:type
           rdf:resource="http://purl.org/dc/dcmitype/StillImage" />
        <dc:title></dc:title>
      </cc:Work>
    </rdf:RDF>
  </metadata>
  <defs
     id="defs4421" />
  <sodipodi:namedview
     pagecolor="#ffffff"
     bordercolor="#666666"
     borderopacity="1"
     objecttolerance="10"
     gridtolerance="10"
     guidetolerance="10"
     inkscape:pageopacity="0"
     inkscape:pageshadow="2"
     inkscape:window-width="1362"
     inkscape:window-height="711"
     id="namedview4419"
     showgrid="false"
     inkscape:zoom="9.8333334"
     inkscape:cx="11.471817"
     inkscape:cy="17.567466"
     inkscape:window-x="0"
     inkscape:window-y="36"
     inkscape:window-maximized="0"
     inkscape:current-layer="svg4415" />
  <path
     inkscape:connector-curvature="0"
     style="fill:#b87ccc;fill-opacity:1"
     id="path4187"
     d="m 27.38983,37.785752 c -2.467379,0 -4.566604,1.578571 -5.341797,3.78125 l -3.609375,0 0,3.78125 3.609375,0 c 0.775193,2.20268 2.874418,3.78125 5.341797,3.78125 2.467378,0 4.566605,-1.57857 5.341797,-3.78125 l 3.609375,0 0,-3.78125 -3.609375,0 c -0.775192,-2.202679 -2.874419,-3.78125 -5.341797,-3.78125 z m 0,3.78125 c 1.039892,0 1.890625,0.850734 1.890625,1.890625 0,1.039892 -0.850733,1.890625 -1.890625,1.890625 -1.039892,0 -1.890625,-0.850733 -1.890625,-1.890625 0,-1.039891 0.850733,-1.890625 1.890625,-1.890625 z" />
  <path
     style="fill:#ffffff;fill-opacity:1"
     inkscape:connector-curvature="0"
     d="M 21,7 9,7 C 7.89,7 7,7.9 7,9 l 0,14 c 0,1.1 0.89,2 2,2 l 14,0 c 1.1,0 2,-0.9 2,-2 L 25,11 21,7 Z M 15.999999,23 C 14.339999,23 13,21.66 13,20 c 0,-1.66 1.339999,-3 2.999999,-3 1.660001,0 3,1.34 3,3 0,1.66 -1.339999,3 -3,3 z m 3,-10 L 9,13 9,9 l 9.999999,0 0,4 z"
     id="path4137" />
</svg>
